# xmcd CD database file
#
# Track frame offsets:
#	150
#	21743
#	45703
#	64873
#	88878
#	111371
#	134142
#	154628
#	177263
#	198814
#
# Disc length: 2897 seconds
#
# Revision: 0
# Processed by: cddbd v1.5.1PL2 Copyright (c) Steve Scherf et al.
# Submitted via: CDex 1.51
#
DISCID=920b4f0a
DTITLE=Ómar Einarsson and Jakob Hagedorn-Olsen - Duo Nor
DYEAR=2005
DGENRE=Jazz
TTITLE0=Opus eithh
TTITLE1=Vals fyrir Höllu
TTITLE2=4 Way Close
TTITLE3=Morgunbirta
TTITLE4=Hip som hap
TTITLE5=Fantasía
TTITLE6=Sumarvindur
TTITLE7=XL Blues
TTITLE8=Saga Nova
TTITLE9=Hægur Dans
EXTD=YEAR: 2005
EXTT0=
EXTT1=
EXTT2=
EXTT3=
EXTT4=
EXTT5=
EXTT6=
EXTT7=
EXTT8=
EXTT9=
PLAYORDER=
